<?xml version="1.0" encoding="utf-8"?>
<!-- Generator: Adobe Illustrator 23.0.0, SVG Export Plug-In . SVG Version: 6.00 Build 0)  -->
<svg version="1.1" id="Layer_1" xmlns="http://www.w3.org/2000/svg" xmlns:xlink="http://www.w3.org/1999/xlink" x="0px" y="0px"
	 viewBox="0 0 16 16" style="enable-background:new 0 0 16 16;" xml:space="preserve">
<style type="text/css">
	.st0{fill:#FFFFFF;}
</style>
<title>icon/link-24px</title>
<desc>Created with Sketch.</desc>
<g id="designs">
	<g id="Shape">
		<path class="st0" d="M2.6,8c0-1.1,0.9-2.1,2.1-2.1h2.7V4.7H4.7C2.8,4.7,1.3,6.2,1.3,8s1.5,3.3,3.3,3.3h2.7v-1.3H4.7
			C3.5,10.1,2.6,9.1,2.6,8z M5.3,8.7h5.3V7.3H5.3V8.7z M11.3,4.7H8.7v1.3h2.7c1.1,0,2.1,0.9,2.1,2.1s-0.9,2.1-2.1,2.1H8.7v1.3h2.7
			c1.8,0,3.3-1.5,3.3-3.3S13.2,4.7,11.3,4.7z"/>
	</g>
</g>
</svg>
