<svg height='100px' width='100px'  fill="#999999" xmlns="http://www.w3.org/2000/svg" xmlns:xlink="http://www.w3.org/1999/xlink" version="1.1" preserveAspectRatio="none" x="0px" y="0px" viewBox="0 0 100 100"><defs><g id="a"><path fill="#999999" stroke="none" d=" M 51.95 48 L 51.95 21.85 Q 51.95 21.05 51.4 20.4 50.8 19.85 49.95 19.85 49.1 19.85 48.55 20.4 47.9 21.05 47.9 21.85 L 47.9 48 21.75 48 Q 20.9 48 20.35 48.6 19.75 49.2 19.75 50.05 19.75 50.9 20.35 51.45 20.9 52.05 21.75 52.05 L 47.9 52.05 47.9 78.2 Q 47.9 79.05 48.55 79.6 49.1 80.25 49.95 80.25 50.8 80.25 51.4 79.6 51.95 79.05 51.95 78.2 L 51.95 52.05 78.1 52.05 Q 78.95 52.05 79.55 51.45 80.15 50.9 80.15 50.05 80.15 49.2 79.55 48.6 78.95 48 78.1 48 L 51.95 48 Z"></path></g></defs><g transform="matrix( 1, 0, 0, 1, 0,0) "><use xlink:href="#a"></use></g></svg>