<svg height='100px' width='100px' xmlns="http://www.w3.org/2000/svg" xmlns:xlink="http://www.w3.org/1999/xlink" version="1.1" x="0px" y="0px" viewBox="0 0 100 100" style="enable-background:new 0 0 100 100;" xml:space="preserve"><path d="M49.7,49.8c-12.4,0-22.5-10.1-22.5-22.5c0-12.4,10.1-22.5,22.5-22.5s22.5,10.1,22.5,22.5  C72.2,39.7,62.1,49.8,49.7,49.8z"></path><path d="M49.7,94.9c-16,0-28.7-1.5-37.9-4.6c-0.7-0.2-1.1-0.8-1.1-1.5c0.2-3.6,0.8-7.2,1.6-10.8  c4.3-16.9,14.7-24.5,19.1-27c0.5-0.3,1.2-0.3,1.7,0.1c4.7,3.3,10.3,5,16,4.9c5.9,0.1,11.7-1.7,16.4-5.2c0.5-0.4,1.2-0.4,1.7-0.1  C71.8,53.2,82.7,60.7,87,78c0.9,3.5,1.4,7.1,1.6,10.8c0,0.7-0.4,1.3-1.1,1.5C78.3,93.4,65.6,94.9,49.7,94.9z"></path></svg>